<?xml version="1.0" encoding="UTF-8"?>
<!DOCTYPE svg PUBLIC "-//W3C//DTD SVG 1.1//EN"
    "http://www.w3.org/Graphics/SVG/1.1/DTD/svg11.dtd"><svg stroke="rgb(0,0,0)" xmlns="http://www.w3.org/2000/svg" font-size="1" width="400.0000" stroke-opacity="1" xmlns:xlink="http://www.w3.org/1999/xlink" viewBox="0.0 0.0 400.0 92.3076923076923" height="92.3077" version="1.1"><defs></defs><g fill="rgb(0,0,0)" stroke="rgb(0,0,0)" stroke-linecap="butt" stroke-width="0.7686151382644182" stroke-miterlimit="10.0" fill-opacity="0.0" stroke-opacity="1.0" stroke-linejoin="miter"><path d="M 200.0000,18.1818 l 167.8322,55.9441 "/></g><g fill="rgb(0,0,0)" stroke="rgb(0,0,0)" stroke-linecap="butt" stroke-width="0.7686151382644182" stroke-miterlimit="10.0" fill-opacity="0.0" stroke-opacity="1.0" stroke-linejoin="miter"><path d="M 200.0000,18.1818 l 111.8881,55.9441 "/></g><g fill="rgb(0,0,0)" stroke="rgb(0,0,0)" stroke-linecap="butt" stroke-width="0.7686151382644182" stroke-miterlimit="10.0" fill-opacity="0.0" stroke-opacity="1.0" stroke-linejoin="miter"><path d="M 200.0000,18.1818 l 55.9441,55.9441 "/></g><g fill="rgb(0,0,0)" stroke="rgb(0,0,0)" stroke-linecap="butt" stroke-width="0.7686151382644182" stroke-miterlimit="10.0" fill-opacity="0.0" stroke-opacity="1.0" stroke-linejoin="miter"><path d="M 200.0000,18.1818 v 55.9441 "/></g><g fill="rgb(0,0,0)" stroke="rgb(0,0,0)" stroke-linecap="butt" stroke-width="0.7686151382644182" stroke-miterlimit="10.0" fill-opacity="0.0" stroke-opacity="1.0" stroke-linejoin="miter"><path d="M 200.0000,18.1818 l -55.9441,55.9441 "/></g><g fill="rgb(0,0,0)" stroke="rgb(0,0,0)" stroke-linecap="butt" stroke-width="0.7686151382644182" stroke-miterlimit="10.0" fill-opacity="0.0" stroke-opacity="1.0" stroke-linejoin="miter"><path d="M 200.0000,18.1818 l -111.8881,55.9441 "/></g><g fill="rgb(0,0,0)" stroke="rgb(0,0,0)" stroke-linecap="butt" stroke-width="0.7686151382644182" stroke-miterlimit="10.0" fill-opacity="0.0" stroke-opacity="1.0" stroke-linejoin="miter"><path d="M 200.0000,18.1818 l -167.8322,55.9441 "/></g><g fill="rgb(255,255,255)" stroke="rgb(0,0,0)" stroke-linecap="butt" stroke-width="0.7686151382644182" stroke-miterlimit="10.0" fill-opacity="1.0" stroke-opacity="1.0" stroke-linejoin="miter"><path d="M 381.8182,74.1259 c 0.0000,-7.7243 -6.2618,-13.9860 -13.9860 -13.9860c -7.7243,-0.0000 -13.9860,6.2618 -13.9860 13.9860c -0.0000,7.7243 6.2618,13.9860 13.9860 13.9860c 7.7243,0.0000 13.9860,-6.2618 13.9860 -13.9860Z"/></g><g fill="rgb(0,0,0)" stroke="rgb(0,0,0)" stroke-linecap="butt" stroke-width="0.7686151382644182" font-size="6.9930069930069925px" stroke-miterlimit="10.0" fill-opacity="1.0" stroke-opacity="1.0" stroke-linejoin="miter"><text dominant-baseline="middle" stroke="none" transform="matrix(1.0000,0.0000,0.0000,1.0000,367.8322,74.1259)" text-anchor="middle">hey</text></g><g fill="rgb(255,255,255)" stroke="rgb(0,0,0)" stroke-linecap="butt" stroke-width="0.7686151382644182" stroke-miterlimit="10.0" fill-opacity="1.0" stroke-opacity="1.0" stroke-linejoin="miter"><path d="M 325.8741,74.1259 c 0.0000,-7.7243 -6.2618,-13.9860 -13.9860 -13.9860c -7.7243,-0.0000 -13.9860,6.2618 -13.9860 13.9860c -0.0000,7.7243 6.2618,13.9860 13.9860 13.9860c 7.7243,0.0000 13.9860,-6.2618 13.9860 -13.9860Z"/></g><g fill="rgb(0,0,0)" stroke="rgb(0,0,0)" stroke-linecap="butt" stroke-width="0.7686151382644182" font-size="6.9930069930069925px" stroke-miterlimit="10.0" fill-opacity="1.0" stroke-opacity="1.0" stroke-linejoin="miter"><text dominant-baseline="middle" stroke="none" transform="matrix(1.0000,0.0000,0.0000,1.0000,311.8881,74.1259)" text-anchor="middle">this</text></g><g fill="rgb(255,255,255)" stroke="rgb(0,0,0)" stroke-linecap="butt" stroke-width="0.7686151382644182" stroke-miterlimit="10.0" fill-opacity="1.0" stroke-opacity="1.0" stroke-linejoin="miter"><path d="M 269.9301,74.1259 c 0.0000,-7.7243 -6.2618,-13.9860 -13.9860 -13.9860c -7.7243,-0.0000 -13.9860,6.2618 -13.9860 13.9860c -0.0000,7.7243 6.2618,13.9860 13.9860 13.9860c 7.7243,0.0000 13.9860,-6.2618 13.9860 -13.9860Z"/></g><g fill="rgb(0,0,0)" stroke="rgb(0,0,0)" stroke-linecap="butt" stroke-width="0.7686151382644182" font-size="6.9930069930069925px" stroke-miterlimit="10.0" fill-opacity="1.0" stroke-opacity="1.0" stroke-linejoin="miter"><text dominant-baseline="middle" stroke="none" transform="matrix(1.0000,0.0000,0.0000,1.0000,255.9441,74.1259)" text-anchor="middle">is</text></g><g fill="rgb(255,255,255)" stroke="rgb(0,0,0)" stroke-linecap="butt" stroke-width="0.7686151382644182" stroke-miterlimit="10.0" fill-opacity="1.0" stroke-opacity="1.0" stroke-linejoin="miter"><path d="M 213.9860,74.1259 c 0.0000,-7.7243 -6.2618,-13.9860 -13.9860 -13.9860c -7.7243,-0.0000 -13.9860,6.2618 -13.9860 13.9860c -0.0000,7.7243 6.2618,13.9860 13.9860 13.9860c 7.7243,0.0000 13.9860,-6.2618 13.9860 -13.9860Z"/></g><g fill="rgb(0,0,0)" stroke="rgb(0,0,0)" stroke-linecap="butt" stroke-width="0.7686151382644182" font-size="6.9930069930069925px" stroke-miterlimit="10.0" fill-opacity="1.0" stroke-opacity="1.0" stroke-linejoin="miter"><text dominant-baseline="middle" stroke="none" transform="matrix(1.0000,0.0000,0.0000,1.0000,200.0000,74.1259)" text-anchor="middle">a</text></g><g fill="rgb(255,255,255)" stroke="rgb(0,0,0)" stroke-linecap="butt" stroke-width="0.7686151382644182" stroke-miterlimit="10.0" fill-opacity="1.0" stroke-opacity="1.0" stroke-linejoin="miter"><path d="M 158.0420,74.1259 c 0.0000,-7.7243 -6.2618,-13.9860 -13.9860 -13.9860c -7.7243,-0.0000 -13.9860,6.2618 -13.9860 13.9860c -0.0000,7.7243 6.2618,13.9860 13.9860 13.9860c 7.7243,0.0000 13.9860,-6.2618 13.9860 -13.9860Z"/></g><g fill="rgb(0,0,0)" stroke="rgb(0,0,0)" stroke-linecap="butt" stroke-width="0.7686151382644182" font-size="6.9930069930069925px" stroke-miterlimit="10.0" fill-opacity="1.0" stroke-opacity="1.0" stroke-linejoin="miter"><text dominant-baseline="middle" stroke="none" transform="matrix(1.0000,0.0000,0.0000,1.0000,144.0559,74.1259)" text-anchor="middle">worst</text></g><g fill="rgb(255,255,255)" stroke="rgb(0,0,0)" stroke-linecap="butt" stroke-width="0.7686151382644182" stroke-miterlimit="10.0" fill-opacity="1.0" stroke-opacity="1.0" stroke-linejoin="miter"><path d="M 102.0979,74.1259 c 0.0000,-7.7243 -6.2618,-13.9860 -13.9860 -13.9860c -7.7243,-0.0000 -13.9860,6.2618 -13.9860 13.9860c -0.0000,7.7243 6.2618,13.9860 13.9860 13.9860c 7.7243,0.0000 13.9860,-6.2618 13.9860 -13.9860Z"/></g><g fill="rgb(0,0,0)" stroke="rgb(0,0,0)" stroke-linecap="butt" stroke-width="0.7686151382644182" font-size="6.9930069930069925px" stroke-miterlimit="10.0" fill-opacity="1.0" stroke-opacity="1.0" stroke-linejoin="miter"><text dominant-baseline="middle" stroke="none" transform="matrix(1.0000,0.0000,0.0000,1.0000,88.1119,74.1259)" text-anchor="middle">case</text></g><g fill="rgb(255,255,255)" stroke="rgb(0,0,0)" stroke-linecap="butt" stroke-width="0.7686151382644182" stroke-miterlimit="10.0" fill-opacity="1.0" stroke-opacity="1.0" stroke-linejoin="miter"><path d="M 46.1538,74.1259 c 0.0000,-7.7243 -6.2618,-13.9860 -13.9860 -13.9860c -7.7243,-0.0000 -13.9860,6.2618 -13.9860 13.9860c -0.0000,7.7243 6.2618,13.9860 13.9860 13.9860c 7.7243,0.0000 13.9860,-6.2618 13.9860 -13.9860Z"/></g><g fill="rgb(0,0,0)" stroke="rgb(0,0,0)" stroke-linecap="butt" stroke-width="0.7686151382644182" font-size="6.9930069930069925px" stroke-miterlimit="10.0" fill-opacity="1.0" stroke-opacity="1.0" stroke-linejoin="miter"><text dominant-baseline="middle" stroke="none" transform="matrix(1.0000,0.0000,0.0000,1.0000,32.1678,74.1259)" text-anchor="middle">example</text></g><g fill="rgb(255,255,255)" stroke="rgb(0,0,0)" stroke-linecap="butt" stroke-width="0.7686151382644182" stroke-miterlimit="10.0" fill-opacity="1.0" stroke-opacity="1.0" stroke-linejoin="miter"><path d="M 213.9860,18.1818 c 0.0000,-7.7243 -6.2618,-13.9860 -13.9860 -13.9860c -7.7243,-0.0000 -13.9860,6.2618 -13.9860 13.9860c -0.0000,7.7243 6.2618,13.9860 13.9860 13.9860c 7.7243,0.0000 13.9860,-6.2618 13.9860 -13.9860Z"/></g><g fill="rgb(0,0,0)" stroke="rgb(0,0,0)" stroke-linecap="butt" stroke-width="0.7686151382644182" font-size="6.9930069930069925px" stroke-miterlimit="10.0" fill-opacity="1.0" stroke-opacity="1.0" stroke-linejoin="miter"><text dominant-baseline="middle" stroke="none" transform="matrix(1.0000,0.0000,0.0000,1.0000,200.0000,18.1818)" text-anchor="middle"></text></g></svg>