<?xml version="1.0" encoding="UTF-8"?>
<!DOCTYPE svg PUBLIC "-//W3C//DTD SVG 1.1//EN"
    "http://www.w3.org/Graphics/SVG/1.1/DTD/svg11.dtd"><svg stroke="rgb(0,0,0)" xmlns="http://www.w3.org/2000/svg" font-size="1" width="400.0000" stroke-opacity="1" xmlns:xlink="http://www.w3.org/1999/xlink" viewBox="0.0 0.0 400.00000000000006 400.00000000000006" height="400.0000" version="1.1"><defs></defs><g fill="rgb(0,0,0)" stroke="rgb(0,0,0)" stroke-linecap="butt" stroke-width="1.6000000000000003" stroke-miterlimit="10.0" fill-opacity="0.0" stroke-opacity="1.0" stroke-linejoin="miter"><path d="M 200.0000,54.5455 v 145.4545 "/></g><g fill="rgb(0,0,0)" stroke="rgb(0,0,0)" stroke-linecap="butt" stroke-width="1.6000000000000003" stroke-miterlimit="10.0" fill-opacity="0.0" stroke-opacity="1.0" stroke-linejoin="miter"><path d="M 200.0000,200.0000 l 145.4545,145.4545 "/></g><g fill="rgb(0,0,0)" stroke="rgb(0,0,0)" stroke-linecap="butt" stroke-width="1.6000000000000003" stroke-miterlimit="10.0" fill-opacity="0.0" stroke-opacity="1.0" stroke-linejoin="miter"><path d="M 200.0000,200.0000 v 145.4545 "/></g><g fill="rgb(0,0,0)" stroke="rgb(0,0,0)" stroke-linecap="butt" stroke-width="1.6000000000000003" stroke-miterlimit="10.0" fill-opacity="0.0" stroke-opacity="1.0" stroke-linejoin="miter"><path d="M 200.0000,200.0000 l -145.4545,145.4545 "/></g><g fill="rgb(255,255,255)" stroke="rgb(0,0,0)" stroke-linecap="butt" stroke-width="1.6000000000000003" stroke-miterlimit="10.0" fill-opacity="1.0" stroke-opacity="1.0" stroke-linejoin="miter"><path d="M 381.8182,345.4545 c 0.0000,-20.0831 -16.2806,-36.3636 -36.3636 -36.3636c -20.0831,-0.0000 -36.3636,16.2806 -36.3636 36.3636c -0.0000,20.0831 16.2806,36.3636 36.3636 36.3636c 20.0831,0.0000 36.3636,-16.2806 36.3636 -36.3636Z"/></g><g fill="rgb(0,0,0)" stroke="rgb(0,0,0)" stroke-linecap="butt" stroke-width="1.6000000000000003" font-size="18.181818181818183px" stroke-miterlimit="10.0" fill-opacity="1.0" stroke-opacity="1.0" stroke-linejoin="miter"><text dominant-baseline="middle" stroke="none" transform="matrix(1.0000,0.0000,0.0000,1.0000,345.4545,345.4545)" text-anchor="middle">Tree</text></g><g fill="rgb(255,255,255)" stroke="rgb(0,0,0)" stroke-linecap="butt" stroke-width="1.6000000000000003" stroke-miterlimit="10.0" fill-opacity="1.0" stroke-opacity="1.0" stroke-linejoin="miter"><path d="M 236.3636,345.4545 c 0.0000,-20.0831 -16.2806,-36.3636 -36.3636 -36.3636c -20.0831,-0.0000 -36.3636,16.2806 -36.3636 36.3636c -0.0000,20.0831 16.2806,36.3636 36.3636 36.3636c 20.0831,0.0000 36.3636,-16.2806 36.3636 -36.3636Z"/></g><g fill="rgb(0,0,0)" stroke="rgb(0,0,0)" stroke-linecap="butt" stroke-width="1.6000000000000003" font-size="18.181818181818183px" stroke-miterlimit="10.0" fill-opacity="1.0" stroke-opacity="1.0" stroke-linejoin="miter"><text dominant-baseline="middle" stroke="none" transform="matrix(1.0000,0.0000,0.0000,1.0000,200.0000,345.4545)" text-anchor="middle">Radix</text></g><g fill="rgb(255,255,255)" stroke="rgb(0,0,0)" stroke-linecap="butt" stroke-width="1.6000000000000003" stroke-miterlimit="10.0" fill-opacity="1.0" stroke-opacity="1.0" stroke-linejoin="miter"><path d="M 90.9091,345.4545 c 0.0000,-20.0831 -16.2806,-36.3636 -36.3636 -36.3636c -20.0831,-0.0000 -36.3636,16.2806 -36.3636 36.3636c -0.0000,20.0831 16.2806,36.3636 36.3636 36.3636c 20.0831,0.0000 36.3636,-16.2806 36.3636 -36.3636Z"/></g><g fill="rgb(0,0,0)" stroke="rgb(0,0,0)" stroke-linecap="butt" stroke-width="1.6000000000000003" font-size="18.181818181818183px" stroke-miterlimit="10.0" fill-opacity="1.0" stroke-opacity="1.0" stroke-linejoin="miter"><text dominant-baseline="middle" stroke="none" transform="matrix(1.0000,0.0000,0.0000,1.0000,54.5455,345.4545)" text-anchor="middle">Haskell</text></g><g fill="rgb(255,255,255)" stroke="rgb(0,0,0)" stroke-linecap="butt" stroke-width="1.6000000000000003" stroke-miterlimit="10.0" fill-opacity="1.0" stroke-opacity="1.0" stroke-linejoin="miter"><path d="M 236.3636,200.0000 c 0.0000,-20.0831 -16.2806,-36.3636 -36.3636 -36.3636c -20.0831,-0.0000 -36.3636,16.2806 -36.3636 36.3636c -0.0000,20.0831 16.2806,36.3636 36.3636 36.3636c 20.0831,0.0000 36.3636,-16.2806 36.3636 -36.3636Z"/></g><g fill="rgb(0,0,0)" stroke="rgb(0,0,0)" stroke-linecap="butt" stroke-width="1.6000000000000003" font-size="18.181818181818183px" stroke-miterlimit="10.0" fill-opacity="1.0" stroke-opacity="1.0" stroke-linejoin="miter"><text dominant-baseline="middle" stroke="none" transform="matrix(1.0000,0.0000,0.0000,1.0000,200.0000,200.0000)" text-anchor="middle">My</text></g><g fill="rgb(255,255,255)" stroke="rgb(0,0,0)" stroke-linecap="butt" stroke-width="1.6000000000000003" stroke-miterlimit="10.0" fill-opacity="1.0" stroke-opacity="1.0" stroke-linejoin="miter"><path d="M 236.3636,54.5455 c 0.0000,-20.0831 -16.2806,-36.3636 -36.3636 -36.3636c -20.0831,-0.0000 -36.3636,16.2806 -36.3636 36.3636c -0.0000,20.0831 16.2806,36.3636 36.3636 36.3636c 20.0831,0.0000 36.3636,-16.2806 36.3636 -36.3636Z"/></g><g fill="rgb(0,0,0)" stroke="rgb(0,0,0)" stroke-linecap="butt" stroke-width="1.6000000000000003" font-size="18.181818181818183px" stroke-miterlimit="10.0" fill-opacity="1.0" stroke-opacity="1.0" stroke-linejoin="miter"><text dominant-baseline="middle" stroke="none" transform="matrix(1.0000,0.0000,0.0000,1.0000,200.0000,54.5455)" text-anchor="middle"></text></g></svg>