<?xml version="1.0" encoding="UTF-8"?>
<!DOCTYPE svg PUBLIC "-//W3C//DTD SVG 1.1//EN"
    "http://www.w3.org/Graphics/SVG/1.1/DTD/svg11.dtd"><svg stroke="rgb(0,0,0)" xmlns="http://www.w3.org/2000/svg" font-size="1" width="400.0000" stroke-opacity="1" xmlns:xlink="http://www.w3.org/1999/xlink" viewBox="0.0 0.0 400.0 400.0" height="400.0000" version="1.1"><defs></defs><g fill="rgb(0,0,0)" stroke="rgb(0,0,0)" stroke-linecap="butt" stroke-width="1.6" stroke-miterlimit="10.0" fill-opacity="0.0" stroke-opacity="1.0" stroke-linejoin="miter"><path d="M 189.8990,38.3838 v 80.8081 "/></g><g fill="rgb(0,0,0)" stroke="rgb(0,0,0)" stroke-linecap="butt" stroke-width="1.6" stroke-miterlimit="10.0" fill-opacity="0.0" stroke-opacity="1.0" stroke-linejoin="miter"><path d="M 189.8990,119.1919 l 90.9091,80.8081 "/></g><g fill="rgb(0,0,0)" stroke="rgb(0,0,0)" stroke-linecap="butt" stroke-width="1.6" stroke-miterlimit="10.0" fill-opacity="0.0" stroke-opacity="1.0" stroke-linejoin="miter"><path d="M 189.8990,119.1919 l -90.9091,80.8081 "/></g><g fill="rgb(0,0,0)" stroke="rgb(0,0,0)" stroke-linecap="butt" stroke-width="1.6" stroke-miterlimit="10.0" fill-opacity="0.0" stroke-opacity="1.0" stroke-linejoin="miter"><path d="M 280.8081,200.0000 l 40.4040,80.8081 "/></g><g fill="rgb(0,0,0)" stroke="rgb(0,0,0)" stroke-linecap="butt" stroke-width="1.6" stroke-miterlimit="10.0" fill-opacity="0.0" stroke-opacity="1.0" stroke-linejoin="miter"><path d="M 280.8081,200.0000 l -40.4040,80.8081 "/></g><g fill="rgb(0,0,0)" stroke="rgb(0,0,0)" stroke-linecap="butt" stroke-width="1.6" stroke-miterlimit="10.0" fill-opacity="0.0" stroke-opacity="1.0" stroke-linejoin="miter"><path d="M 321.2121,280.8081 l 40.4040,80.8081 "/></g><g fill="rgb(0,0,0)" stroke="rgb(0,0,0)" stroke-linecap="butt" stroke-width="1.6" stroke-miterlimit="10.0" fill-opacity="0.0" stroke-opacity="1.0" stroke-linejoin="miter"><path d="M 321.2121,280.8081 l -40.4040,80.8081 "/></g><g fill="rgb(255,255,255)" stroke="rgb(0,0,0)" stroke-linecap="butt" stroke-width="1.6" stroke-miterlimit="10.0" fill-opacity="1.0" stroke-opacity="1.0" stroke-linejoin="miter"><path d="M 381.8182,361.6162 c 0.0000,-11.1573 -9.0448,-20.2020 -20.2020 -20.2020c -11.1573,-0.0000 -20.2020,9.0448 -20.2020 20.2020c -0.0000,11.1573 9.0448,20.2020 20.2020 20.2020c 11.1573,0.0000 20.2020,-9.0448 20.2020 -20.2020Z"/></g><g fill="rgb(0,0,0)" stroke="rgb(0,0,0)" stroke-linecap="butt" stroke-width="1.6" font-size="10.1010101010101px" stroke-miterlimit="10.0" fill-opacity="1.0" stroke-opacity="1.0" stroke-linejoin="miter"><text dominant-baseline="middle" stroke="none" transform="matrix(1.0000,0.0000,0.0000,1.0000,361.6162,361.6162)" text-anchor="middle">e</text></g><g fill="rgb(255,255,255)" stroke="rgb(0,0,0)" stroke-linecap="butt" stroke-width="1.6" stroke-miterlimit="10.0" fill-opacity="1.0" stroke-opacity="1.0" stroke-linejoin="miter"><path d="M 301.0101,361.6162 c 0.0000,-11.1573 -9.0448,-20.2020 -20.2020 -20.2020c -11.1573,-0.0000 -20.2020,9.0448 -20.2020 20.2020c -0.0000,11.1573 9.0448,20.2020 20.2020 20.2020c 11.1573,0.0000 20.2020,-9.0448 20.2020 -20.2020Z"/></g><g fill="rgb(0,0,0)" stroke="rgb(0,0,0)" stroke-linecap="butt" stroke-width="1.6" font-size="10.1010101010101px" stroke-miterlimit="10.0" fill-opacity="1.0" stroke-opacity="1.0" stroke-linejoin="miter"><text dominant-baseline="middle" stroke="none" transform="matrix(1.0000,0.0000,0.0000,1.0000,280.8081,361.6162)" text-anchor="middle">us</text></g><g fill="rgb(255,255,255)" stroke="rgb(0,0,0)" stroke-linecap="butt" stroke-width="1.6" stroke-miterlimit="10.0" fill-opacity="1.0" stroke-opacity="1.0" stroke-linejoin="miter"><path d="M 341.4141,280.8081 c 0.0000,-11.1573 -9.0448,-20.2020 -20.2020 -20.2020c -11.1573,-0.0000 -20.2020,9.0448 -20.2020 20.2020c -0.0000,11.1573 9.0448,20.2020 20.2020 20.2020c 11.1573,0.0000 20.2020,-9.0448 20.2020 -20.2020Z"/></g><g fill="rgb(0,0,0)" stroke="rgb(0,0,0)" stroke-linecap="butt" stroke-width="1.6" font-size="10.1010101010101px" stroke-miterlimit="10.0" fill-opacity="1.0" stroke-opacity="1.0" stroke-linejoin="miter"><text dominant-baseline="middle" stroke="none" transform="matrix(1.0000,0.0000,0.0000,1.0000,321.2121,280.8081)" text-anchor="middle">an</text></g><g fill="rgb(255,255,255)" stroke="rgb(0,0,0)" stroke-linecap="butt" stroke-width="1.6" stroke-miterlimit="10.0" fill-opacity="1.0" stroke-opacity="1.0" stroke-linejoin="miter"><path d="M 260.6061,280.8081 c 0.0000,-11.1573 -9.0448,-20.2020 -20.2020 -20.2020c -11.1573,-0.0000 -20.2020,9.0448 -20.2020 20.2020c -0.0000,11.1573 9.0448,20.2020 20.2020 20.2020c 11.1573,0.0000 20.2020,-9.0448 20.2020 -20.2020Z"/></g><g fill="rgb(0,0,0)" stroke="rgb(0,0,0)" stroke-linecap="butt" stroke-width="1.6" font-size="10.1010101010101px" stroke-miterlimit="10.0" fill-opacity="1.0" stroke-opacity="1.0" stroke-linejoin="miter"><text dominant-baseline="middle" stroke="none" transform="matrix(1.0000,0.0000,0.0000,1.0000,240.4040,280.8081)" text-anchor="middle">ulus</text></g><g fill="rgb(255,255,255)" stroke="rgb(0,0,0)" stroke-linecap="butt" stroke-width="1.6" stroke-miterlimit="10.0" fill-opacity="1.0" stroke-opacity="1.0" stroke-linejoin="miter"><path d="M 301.0101,200.0000 c 0.0000,-11.1573 -9.0448,-20.2020 -20.2020 -20.2020c -11.1573,-0.0000 -20.2020,9.0448 -20.2020 20.2020c -0.0000,11.1573 9.0448,20.2020 20.2020 20.2020c 11.1573,0.0000 20.2020,-9.0448 20.2020 -20.2020Z"/></g><g fill="rgb(0,0,0)" stroke="rgb(0,0,0)" stroke-linecap="butt" stroke-width="1.6" font-size="10.1010101010101px" stroke-miterlimit="10.0" fill-opacity="1.0" stroke-opacity="1.0" stroke-linejoin="miter"><text dominant-baseline="middle" stroke="none" transform="matrix(1.0000,0.0000,0.0000,1.0000,280.8081,200.0000)" text-anchor="middle">om</text></g><g fill="rgb(0,0,0)" stroke="rgb(0,0,0)" stroke-linecap="butt" stroke-width="1.6" stroke-miterlimit="10.0" fill-opacity="0.0" stroke-opacity="1.0" stroke-linejoin="miter"><path d="M 98.9899,200.0000 l 60.6061,80.8081 "/></g><g fill="rgb(0,0,0)" stroke="rgb(0,0,0)" stroke-linecap="butt" stroke-width="1.6" stroke-miterlimit="10.0" fill-opacity="0.0" stroke-opacity="1.0" stroke-linejoin="miter"><path d="M 98.9899,200.0000 l -60.6061,80.8081 "/></g><g fill="rgb(0,0,0)" stroke="rgb(0,0,0)" stroke-linecap="butt" stroke-width="1.6" stroke-miterlimit="10.0" fill-opacity="0.0" stroke-opacity="1.0" stroke-linejoin="miter"><path d="M 159.5960,280.8081 l 40.4040,80.8081 "/></g><g fill="rgb(0,0,0)" stroke="rgb(0,0,0)" stroke-linecap="butt" stroke-width="1.6" stroke-miterlimit="10.0" fill-opacity="0.0" stroke-opacity="1.0" stroke-linejoin="miter"><path d="M 159.5960,280.8081 l -40.4040,80.8081 "/></g><g fill="rgb(255,255,255)" stroke="rgb(0,0,0)" stroke-linecap="butt" stroke-width="1.6" stroke-miterlimit="10.0" fill-opacity="1.0" stroke-opacity="1.0" stroke-linejoin="miter"><path d="M 220.2020,361.6162 c 0.0000,-11.1573 -9.0448,-20.2020 -20.2020 -20.2020c -11.1573,-0.0000 -20.2020,9.0448 -20.2020 20.2020c -0.0000,11.1573 9.0448,20.2020 20.2020 20.2020c 11.1573,0.0000 20.2020,-9.0448 20.2020 -20.2020Z"/></g><g fill="rgb(0,0,0)" stroke="rgb(0,0,0)" stroke-linecap="butt" stroke-width="1.6" font-size="10.1010101010101px" stroke-miterlimit="10.0" fill-opacity="1.0" stroke-opacity="1.0" stroke-linejoin="miter"><text dominant-baseline="middle" stroke="none" transform="matrix(1.0000,0.0000,0.0000,1.0000,200.0000,361.6162)" text-anchor="middle">ns</text></g><g fill="rgb(255,255,255)" stroke="rgb(0,0,0)" stroke-linecap="butt" stroke-width="1.6" stroke-miterlimit="10.0" fill-opacity="1.0" stroke-opacity="1.0" stroke-linejoin="miter"><path d="M 139.3939,361.6162 c 0.0000,-11.1573 -9.0448,-20.2020 -20.2020 -20.2020c -11.1573,-0.0000 -20.2020,9.0448 -20.2020 20.2020c -0.0000,11.1573 9.0448,20.2020 20.2020 20.2020c 11.1573,0.0000 20.2020,-9.0448 20.2020 -20.2020Z"/></g><g fill="rgb(0,0,0)" stroke="rgb(0,0,0)" stroke-linecap="butt" stroke-width="1.6" font-size="10.1010101010101px" stroke-miterlimit="10.0" fill-opacity="1.0" stroke-opacity="1.0" stroke-linejoin="miter"><text dominant-baseline="middle" stroke="none" transform="matrix(1.0000,0.0000,0.0000,1.0000,119.1919,361.6162)" text-anchor="middle">r</text></g><g fill="rgb(255,255,255)" stroke="rgb(0,0,0)" stroke-linecap="butt" stroke-width="1.6" stroke-miterlimit="10.0" fill-opacity="1.0" stroke-opacity="1.0" stroke-linejoin="miter"><path d="M 179.7980,280.8081 c 0.0000,-11.1573 -9.0448,-20.2020 -20.2020 -20.2020c -11.1573,-0.0000 -20.2020,9.0448 -20.2020 20.2020c -0.0000,11.1573 9.0448,20.2020 20.2020 20.2020c 11.1573,0.0000 20.2020,-9.0448 20.2020 -20.2020Z"/></g><g fill="rgb(0,0,0)" stroke="rgb(0,0,0)" stroke-linecap="butt" stroke-width="1.6" font-size="10.1010101010101px" stroke-miterlimit="10.0" fill-opacity="1.0" stroke-opacity="1.0" stroke-linejoin="miter"><text dominant-baseline="middle" stroke="none" transform="matrix(1.0000,0.0000,0.0000,1.0000,159.5960,280.8081)" text-anchor="middle">e</text></g><g fill="rgb(0,0,0)" stroke="rgb(0,0,0)" stroke-linecap="butt" stroke-width="1.6" stroke-miterlimit="10.0" fill-opacity="0.0" stroke-opacity="1.0" stroke-linejoin="miter"><path d="M 38.3838,280.8081 v 80.8081 "/></g><g fill="rgb(255,255,255)" stroke="rgb(0,0,0)" stroke-linecap="butt" stroke-width="1.6" stroke-miterlimit="10.0" fill-opacity="1.0" stroke-opacity="1.0" stroke-linejoin="miter"><path d="M 58.5859,361.6162 c 0.0000,-11.1573 -9.0448,-20.2020 -20.2020 -20.2020c -11.1573,-0.0000 -20.2020,9.0448 -20.2020 20.2020c -0.0000,11.1573 9.0448,20.2020 20.2020 20.2020c 11.1573,0.0000 20.2020,-9.0448 20.2020 -20.2020Z"/></g><g fill="rgb(0,0,0)" stroke="rgb(0,0,0)" stroke-linecap="butt" stroke-width="1.6" font-size="10.1010101010101px" stroke-miterlimit="10.0" fill-opacity="1.0" stroke-opacity="1.0" stroke-linejoin="miter"><text dominant-baseline="middle" stroke="none" transform="matrix(1.0000,0.0000,0.0000,1.0000,38.3838,361.6162)" text-anchor="middle">undus</text></g><g fill="rgb(255,255,255)" stroke="rgb(0,0,0)" stroke-linecap="butt" stroke-width="1.6" stroke-miterlimit="10.0" fill-opacity="1.0" stroke-opacity="1.0" stroke-linejoin="miter"><path d="M 58.5859,280.8081 c 0.0000,-11.1573 -9.0448,-20.2020 -20.2020 -20.2020c -11.1573,-0.0000 -20.2020,9.0448 -20.2020 20.2020c -0.0000,11.1573 9.0448,20.2020 20.2020 20.2020c 11.1573,0.0000 20.2020,-9.0448 20.2020 -20.2020Z"/></g><g fill="rgb(0,0,0)" stroke="rgb(0,0,0)" stroke-linecap="butt" stroke-width="1.6" font-size="10.1010101010101px" stroke-miterlimit="10.0" fill-opacity="1.0" stroke-opacity="1.0" stroke-linejoin="miter"><text dominant-baseline="middle" stroke="none" transform="matrix(1.0000,0.0000,0.0000,1.0000,38.3838,280.8081)" text-anchor="middle">ic</text></g><g fill="rgb(255,255,255)" stroke="rgb(0,0,0)" stroke-linecap="butt" stroke-width="1.6" stroke-miterlimit="10.0" fill-opacity="1.0" stroke-opacity="1.0" stroke-linejoin="miter"><path d="M 119.1919,200.0000 c 0.0000,-11.1573 -9.0448,-20.2020 -20.2020 -20.2020c -11.1573,-0.0000 -20.2020,9.0448 -20.2020 20.2020c -0.0000,11.1573 9.0448,20.2020 20.2020 20.2020c 11.1573,0.0000 20.2020,-9.0448 20.2020 -20.2020Z"/></g><g fill="rgb(0,0,0)" stroke="rgb(0,0,0)" stroke-linecap="butt" stroke-width="1.6" font-size="10.1010101010101px" stroke-miterlimit="10.0" fill-opacity="1.0" stroke-opacity="1.0" stroke-linejoin="miter"><text dominant-baseline="middle" stroke="none" transform="matrix(1.0000,0.0000,0.0000,1.0000,98.9899,200.0000)" text-anchor="middle">ub</text></g><g fill="rgb(255,255,255)" stroke="rgb(0,0,0)" stroke-linecap="butt" stroke-width="1.6" stroke-miterlimit="10.0" fill-opacity="1.0" stroke-opacity="1.0" stroke-linejoin="miter"><path d="M 210.1010,119.1919 c 0.0000,-11.1573 -9.0448,-20.2020 -20.2020 -20.2020c -11.1573,-0.0000 -20.2020,9.0448 -20.2020 20.2020c -0.0000,11.1573 9.0448,20.2020 20.2020 20.2020c 11.1573,0.0000 20.2020,-9.0448 20.2020 -20.2020Z"/></g><g fill="rgb(0,0,0)" stroke="rgb(0,0,0)" stroke-linecap="butt" stroke-width="1.6" font-size="10.1010101010101px" stroke-miterlimit="10.0" fill-opacity="1.0" stroke-opacity="1.0" stroke-linejoin="miter"><text dominant-baseline="middle" stroke="none" transform="matrix(1.0000,0.0000,0.0000,1.0000,189.8990,119.1919)" text-anchor="middle">r</text></g><g fill="rgb(255,255,255)" stroke="rgb(0,0,0)" stroke-linecap="butt" stroke-width="1.6" stroke-miterlimit="10.0" fill-opacity="1.0" stroke-opacity="1.0" stroke-linejoin="miter"><path d="M 210.1010,38.3838 c 0.0000,-11.1573 -9.0448,-20.2020 -20.2020 -20.2020c -11.1573,-0.0000 -20.2020,9.0448 -20.2020 20.2020c -0.0000,11.1573 9.0448,20.2020 20.2020 20.2020c 11.1573,0.0000 20.2020,-9.0448 20.2020 -20.2020Z"/></g><g fill="rgb(0,0,0)" stroke="rgb(0,0,0)" stroke-linecap="butt" stroke-width="1.6" font-size="10.1010101010101px" stroke-miterlimit="10.0" fill-opacity="1.0" stroke-opacity="1.0" stroke-linejoin="miter"><text dominant-baseline="middle" stroke="none" transform="matrix(1.0000,0.0000,0.0000,1.0000,189.8990,38.3838)" text-anchor="middle"></text></g></svg>