<?xml version="1.0" encoding="UTF-8"?>
<!DOCTYPE svg PUBLIC "-//W3C//DTD SVG 1.1//EN"
    "http://www.w3.org/Graphics/SVG/1.1/DTD/svg11.dtd"><svg stroke="rgb(0,0,0)" xmlns="http://www.w3.org/2000/svg" font-size="1" width="400.0000" stroke-opacity="1" xmlns:xlink="http://www.w3.org/1999/xlink" viewBox="0.0 0.0 400.00000000000006 327.2727272727273" height="327.2727" version="1.1"><defs></defs><g fill="rgb(0,0,0)" stroke="rgb(0,0,0)" stroke-linecap="butt" stroke-width="1.4472544539732655" stroke-miterlimit="10.0" fill-opacity="0.0" stroke-opacity="1.0" stroke-linejoin="miter"><path d="M 216.5289,31.4050 v 66.1157 "/></g><g fill="rgb(0,0,0)" stroke="rgb(0,0,0)" stroke-linecap="butt" stroke-width="1.4472544539732655" stroke-miterlimit="10.0" fill-opacity="0.0" stroke-opacity="1.0" stroke-linejoin="miter"><path d="M 216.5289,97.5207 l 82.6446,66.1157 "/></g><g fill="rgb(0,0,0)" stroke="rgb(0,0,0)" stroke-linecap="butt" stroke-width="1.4472544539732655" stroke-miterlimit="10.0" fill-opacity="0.0" stroke-opacity="1.0" stroke-linejoin="miter"><path d="M 216.5289,97.5207 l -82.6446,66.1157 "/></g><g fill="rgb(0,0,0)" stroke="rgb(0,0,0)" stroke-linecap="butt" stroke-width="1.4472544539732655" stroke-miterlimit="10.0" fill-opacity="0.0" stroke-opacity="1.0" stroke-linejoin="miter"><path d="M 299.1736,163.6364 l 33.0579,66.1157 "/></g><g fill="rgb(0,0,0)" stroke="rgb(0,0,0)" stroke-linecap="butt" stroke-width="1.4472544539732655" stroke-miterlimit="10.0" fill-opacity="0.0" stroke-opacity="1.0" stroke-linejoin="miter"><path d="M 299.1736,163.6364 l -33.0579,66.1157 "/></g><g fill="rgb(0,0,0)" stroke="rgb(0,0,0)" stroke-linecap="butt" stroke-width="1.4472544539732655" stroke-miterlimit="10.0" fill-opacity="0.0" stroke-opacity="1.0" stroke-linejoin="miter"><path d="M 332.2314,229.7521 l 33.0579,66.1157 "/></g><g fill="rgb(0,0,0)" stroke="rgb(0,0,0)" stroke-linecap="butt" stroke-width="1.4472544539732655" stroke-miterlimit="10.0" fill-opacity="0.0" stroke-opacity="1.0" stroke-linejoin="miter"><path d="M 332.2314,229.7521 l -33.0579,66.1157 "/></g><g fill="rgb(255,255,255)" stroke="rgb(0,0,0)" stroke-linecap="butt" stroke-width="1.4472544539732655" stroke-miterlimit="10.0" fill-opacity="1.0" stroke-opacity="1.0" stroke-linejoin="miter"><path d="M 381.8182,295.8678 c 0.0000,-9.1287 -7.4003,-16.5289 -16.5289 -16.5289c -9.1287,-0.0000 -16.5289,7.4003 -16.5289 16.5289c -0.0000,9.1287 7.4003,16.5289 16.5289 16.5289c 9.1287,0.0000 16.5289,-7.4003 16.5289 -16.5289Z"/></g><g fill="rgb(0,0,0)" stroke="rgb(0,0,0)" stroke-linecap="butt" stroke-width="1.4472544539732655" font-size="8.264462809917356px" stroke-miterlimit="10.0" fill-opacity="1.0" stroke-opacity="1.0" stroke-linejoin="miter"><text dominant-baseline="middle" stroke="none" transform="matrix(1.0000,0.0000,0.0000,1.0000,365.2893,295.8678)" text-anchor="middle">e</text></g><g fill="rgb(255,255,255)" stroke="rgb(0,0,0)" stroke-linecap="butt" stroke-width="1.4472544539732655" stroke-miterlimit="10.0" fill-opacity="1.0" stroke-opacity="1.0" stroke-linejoin="miter"><path d="M 315.7025,295.8678 c 0.0000,-9.1287 -7.4003,-16.5289 -16.5289 -16.5289c -9.1287,-0.0000 -16.5289,7.4003 -16.5289 16.5289c -0.0000,9.1287 7.4003,16.5289 16.5289 16.5289c 9.1287,0.0000 16.5289,-7.4003 16.5289 -16.5289Z"/></g><g fill="rgb(0,0,0)" stroke="rgb(0,0,0)" stroke-linecap="butt" stroke-width="1.4472544539732655" font-size="8.264462809917356px" stroke-miterlimit="10.0" fill-opacity="1.0" stroke-opacity="1.0" stroke-linejoin="miter"><text dominant-baseline="middle" stroke="none" transform="matrix(1.0000,0.0000,0.0000,1.0000,299.1736,295.8678)" text-anchor="middle">us</text></g><g fill="rgb(255,255,255)" stroke="rgb(0,0,0)" stroke-linecap="butt" stroke-width="1.4472544539732655" stroke-miterlimit="10.0" fill-opacity="1.0" stroke-opacity="1.0" stroke-linejoin="miter"><path d="M 348.7603,229.7521 c 0.0000,-9.1287 -7.4003,-16.5289 -16.5289 -16.5289c -9.1287,-0.0000 -16.5289,7.4003 -16.5289 16.5289c -0.0000,9.1287 7.4003,16.5289 16.5289 16.5289c 9.1287,0.0000 16.5289,-7.4003 16.5289 -16.5289Z"/></g><g fill="rgb(0,0,0)" stroke="rgb(0,0,0)" stroke-linecap="butt" stroke-width="1.4472544539732655" font-size="8.264462809917356px" stroke-miterlimit="10.0" fill-opacity="1.0" stroke-opacity="1.0" stroke-linejoin="miter"><text dominant-baseline="middle" stroke="none" transform="matrix(1.0000,0.0000,0.0000,1.0000,332.2314,229.7521)" text-anchor="middle">an</text></g><g fill="rgb(255,255,255)" stroke="rgb(0,0,0)" stroke-linecap="butt" stroke-width="1.4472544539732655" stroke-miterlimit="10.0" fill-opacity="1.0" stroke-opacity="1.0" stroke-linejoin="miter"><path d="M 282.6446,229.7521 c 0.0000,-9.1287 -7.4003,-16.5289 -16.5289 -16.5289c -9.1287,-0.0000 -16.5289,7.4003 -16.5289 16.5289c -0.0000,9.1287 7.4003,16.5289 16.5289 16.5289c 9.1287,0.0000 16.5289,-7.4003 16.5289 -16.5289Z"/></g><g fill="rgb(0,0,0)" stroke="rgb(0,0,0)" stroke-linecap="butt" stroke-width="1.4472544539732655" font-size="8.264462809917356px" stroke-miterlimit="10.0" fill-opacity="1.0" stroke-opacity="1.0" stroke-linejoin="miter"><text dominant-baseline="middle" stroke="none" transform="matrix(1.0000,0.0000,0.0000,1.0000,266.1157,229.7521)" text-anchor="middle">ulus</text></g><g fill="rgb(255,255,255)" stroke="rgb(0,0,0)" stroke-linecap="butt" stroke-width="1.4472544539732655" stroke-miterlimit="10.0" fill-opacity="1.0" stroke-opacity="1.0" stroke-linejoin="miter"><path d="M 315.7025,163.6364 c 0.0000,-9.1287 -7.4003,-16.5289 -16.5289 -16.5289c -9.1287,-0.0000 -16.5289,7.4003 -16.5289 16.5289c -0.0000,9.1287 7.4003,16.5289 16.5289 16.5289c 9.1287,0.0000 16.5289,-7.4003 16.5289 -16.5289Z"/></g><g fill="rgb(0,0,0)" stroke="rgb(0,0,0)" stroke-linecap="butt" stroke-width="1.4472544539732655" font-size="8.264462809917356px" stroke-miterlimit="10.0" fill-opacity="1.0" stroke-opacity="1.0" stroke-linejoin="miter"><text dominant-baseline="middle" stroke="none" transform="matrix(1.0000,0.0000,0.0000,1.0000,299.1736,163.6364)" text-anchor="middle">om</text></g><g fill="rgb(0,0,0)" stroke="rgb(0,0,0)" stroke-linecap="butt" stroke-width="1.4472544539732655" stroke-miterlimit="10.0" fill-opacity="0.0" stroke-opacity="1.0" stroke-linejoin="miter"><path d="M 133.8843,163.6364 l 66.1157,66.1157 "/></g><g fill="rgb(0,0,0)" stroke="rgb(0,0,0)" stroke-linecap="butt" stroke-width="1.4472544539732655" stroke-miterlimit="10.0" fill-opacity="0.0" stroke-opacity="1.0" stroke-linejoin="miter"><path d="M 133.8843,163.6364 l -66.1157,66.1157 "/></g><g fill="rgb(0,0,0)" stroke="rgb(0,0,0)" stroke-linecap="butt" stroke-width="1.4472544539732655" stroke-miterlimit="10.0" fill-opacity="0.0" stroke-opacity="1.0" stroke-linejoin="miter"><path d="M 200.0000,229.7521 l 33.0579,66.1157 "/></g><g fill="rgb(0,0,0)" stroke="rgb(0,0,0)" stroke-linecap="butt" stroke-width="1.4472544539732655" stroke-miterlimit="10.0" fill-opacity="0.0" stroke-opacity="1.0" stroke-linejoin="miter"><path d="M 200.0000,229.7521 l -33.0579,66.1157 "/></g><g fill="rgb(255,255,255)" stroke="rgb(0,0,0)" stroke-linecap="butt" stroke-width="1.4472544539732655" stroke-miterlimit="10.0" fill-opacity="1.0" stroke-opacity="1.0" stroke-linejoin="miter"><path d="M 249.5868,295.8678 c 0.0000,-9.1287 -7.4003,-16.5289 -16.5289 -16.5289c -9.1287,-0.0000 -16.5289,7.4003 -16.5289 16.5289c -0.0000,9.1287 7.4003,16.5289 16.5289 16.5289c 9.1287,0.0000 16.5289,-7.4003 16.5289 -16.5289Z"/></g><g fill="rgb(0,0,0)" stroke="rgb(0,0,0)" stroke-linecap="butt" stroke-width="1.4472544539732655" font-size="8.264462809917356px" stroke-miterlimit="10.0" fill-opacity="1.0" stroke-opacity="1.0" stroke-linejoin="miter"><text dominant-baseline="middle" stroke="none" transform="matrix(1.0000,0.0000,0.0000,1.0000,233.0579,295.8678)" text-anchor="middle">ns</text></g><g fill="rgb(255,255,255)" stroke="rgb(0,0,0)" stroke-linecap="butt" stroke-width="1.4472544539732655" stroke-miterlimit="10.0" fill-opacity="1.0" stroke-opacity="1.0" stroke-linejoin="miter"><path d="M 183.4711,295.8678 c 0.0000,-9.1287 -7.4003,-16.5289 -16.5289 -16.5289c -9.1287,-0.0000 -16.5289,7.4003 -16.5289 16.5289c -0.0000,9.1287 7.4003,16.5289 16.5289 16.5289c 9.1287,0.0000 16.5289,-7.4003 16.5289 -16.5289Z"/></g><g fill="rgb(0,0,0)" stroke="rgb(0,0,0)" stroke-linecap="butt" stroke-width="1.4472544539732655" font-size="8.264462809917356px" stroke-miterlimit="10.0" fill-opacity="1.0" stroke-opacity="1.0" stroke-linejoin="miter"><text dominant-baseline="middle" stroke="none" transform="matrix(1.0000,0.0000,0.0000,1.0000,166.9421,295.8678)" text-anchor="middle">r</text></g><g fill="rgb(255,255,255)" stroke="rgb(0,0,0)" stroke-linecap="butt" stroke-width="1.4472544539732655" stroke-miterlimit="10.0" fill-opacity="1.0" stroke-opacity="1.0" stroke-linejoin="miter"><path d="M 216.5289,229.7521 c 0.0000,-9.1287 -7.4003,-16.5289 -16.5289 -16.5289c -9.1287,-0.0000 -16.5289,7.4003 -16.5289 16.5289c -0.0000,9.1287 7.4003,16.5289 16.5289 16.5289c 9.1287,0.0000 16.5289,-7.4003 16.5289 -16.5289Z"/></g><g fill="rgb(0,0,0)" stroke="rgb(0,0,0)" stroke-linecap="butt" stroke-width="1.4472544539732655" font-size="8.264462809917356px" stroke-miterlimit="10.0" fill-opacity="1.0" stroke-opacity="1.0" stroke-linejoin="miter"><text dominant-baseline="middle" stroke="none" transform="matrix(1.0000,0.0000,0.0000,1.0000,200.0000,229.7521)" text-anchor="middle">e</text></g><g fill="rgb(0,0,0)" stroke="rgb(0,0,0)" stroke-linecap="butt" stroke-width="1.4472544539732655" stroke-miterlimit="10.0" fill-opacity="0.0" stroke-opacity="1.0" stroke-linejoin="miter"><path d="M 67.7686,229.7521 l 33.0579,66.1157 "/></g><g fill="rgb(0,0,0)" stroke="rgb(0,0,0)" stroke-linecap="butt" stroke-width="1.4472544539732655" stroke-miterlimit="10.0" fill-opacity="0.0" stroke-opacity="1.0" stroke-linejoin="miter"><path d="M 67.7686,229.7521 l -33.0579,66.1157 "/></g><g fill="rgb(255,255,255)" stroke="rgb(0,0,0)" stroke-linecap="butt" stroke-width="1.4472544539732655" stroke-miterlimit="10.0" fill-opacity="1.0" stroke-opacity="1.0" stroke-linejoin="miter"><path d="M 117.3554,295.8678 c 0.0000,-9.1287 -7.4003,-16.5289 -16.5289 -16.5289c -9.1287,-0.0000 -16.5289,7.4003 -16.5289 16.5289c -0.0000,9.1287 7.4003,16.5289 16.5289 16.5289c 9.1287,0.0000 16.5289,-7.4003 16.5289 -16.5289Z"/></g><g fill="rgb(0,0,0)" stroke="rgb(0,0,0)" stroke-linecap="butt" stroke-width="1.4472544539732655" font-size="8.264462809917356px" stroke-miterlimit="10.0" fill-opacity="1.0" stroke-opacity="1.0" stroke-linejoin="miter"><text dominant-baseline="middle" stroke="none" transform="matrix(1.0000,0.0000,0.0000,1.0000,100.8264,295.8678)" text-anchor="middle">on</text></g><g fill="rgb(255,255,255)" stroke="rgb(0,0,0)" stroke-linecap="butt" stroke-width="1.4472544539732655" stroke-miterlimit="10.0" fill-opacity="1.0" stroke-opacity="1.0" stroke-linejoin="miter"><path d="M 51.2397,295.8678 c 0.0000,-9.1287 -7.4003,-16.5289 -16.5289 -16.5289c -9.1287,-0.0000 -16.5289,7.4003 -16.5289 16.5289c -0.0000,9.1287 7.4003,16.5289 16.5289 16.5289c 9.1287,0.0000 16.5289,-7.4003 16.5289 -16.5289Z"/></g><g fill="rgb(0,0,0)" stroke="rgb(0,0,0)" stroke-linecap="butt" stroke-width="1.4472544539732655" font-size="8.264462809917356px" stroke-miterlimit="10.0" fill-opacity="1.0" stroke-opacity="1.0" stroke-linejoin="miter"><text dominant-baseline="middle" stroke="none" transform="matrix(1.0000,0.0000,0.0000,1.0000,34.7107,295.8678)" text-anchor="middle">undus</text></g><g fill="rgb(255,255,255)" stroke="rgb(0,0,0)" stroke-linecap="butt" stroke-width="1.4472544539732655" stroke-miterlimit="10.0" fill-opacity="1.0" stroke-opacity="1.0" stroke-linejoin="miter"><path d="M 84.2975,229.7521 c 0.0000,-9.1287 -7.4003,-16.5289 -16.5289 -16.5289c -9.1287,-0.0000 -16.5289,7.4003 -16.5289 16.5289c -0.0000,9.1287 7.4003,16.5289 16.5289 16.5289c 9.1287,0.0000 16.5289,-7.4003 16.5289 -16.5289Z"/></g><g fill="rgb(0,0,0)" stroke="rgb(0,0,0)" stroke-linecap="butt" stroke-width="1.4472544539732655" font-size="8.264462809917356px" stroke-miterlimit="10.0" fill-opacity="1.0" stroke-opacity="1.0" stroke-linejoin="miter"><text dominant-baseline="middle" stroke="none" transform="matrix(1.0000,0.0000,0.0000,1.0000,67.7686,229.7521)" text-anchor="middle">ic</text></g><g fill="rgb(255,255,255)" stroke="rgb(0,0,0)" stroke-linecap="butt" stroke-width="1.4472544539732655" stroke-miterlimit="10.0" fill-opacity="1.0" stroke-opacity="1.0" stroke-linejoin="miter"><path d="M 150.4132,163.6364 c 0.0000,-9.1287 -7.4003,-16.5289 -16.5289 -16.5289c -9.1287,-0.0000 -16.5289,7.4003 -16.5289 16.5289c -0.0000,9.1287 7.4003,16.5289 16.5289 16.5289c 9.1287,0.0000 16.5289,-7.4003 16.5289 -16.5289Z"/></g><g fill="rgb(0,0,0)" stroke="rgb(0,0,0)" stroke-linecap="butt" stroke-width="1.4472544539732655" font-size="8.264462809917356px" stroke-miterlimit="10.0" fill-opacity="1.0" stroke-opacity="1.0" stroke-linejoin="miter"><text dominant-baseline="middle" stroke="none" transform="matrix(1.0000,0.0000,0.0000,1.0000,133.8843,163.6364)" text-anchor="middle">ub</text></g><g fill="rgb(255,255,255)" stroke="rgb(0,0,0)" stroke-linecap="butt" stroke-width="1.4472544539732655" stroke-miterlimit="10.0" fill-opacity="1.0" stroke-opacity="1.0" stroke-linejoin="miter"><path d="M 233.0579,97.5207 c 0.0000,-9.1287 -7.4003,-16.5289 -16.5289 -16.5289c -9.1287,-0.0000 -16.5289,7.4003 -16.5289 16.5289c -0.0000,9.1287 7.4003,16.5289 16.5289 16.5289c 9.1287,0.0000 16.5289,-7.4003 16.5289 -16.5289Z"/></g><g fill="rgb(0,0,0)" stroke="rgb(0,0,0)" stroke-linecap="butt" stroke-width="1.4472544539732655" font-size="8.264462809917356px" stroke-miterlimit="10.0" fill-opacity="1.0" stroke-opacity="1.0" stroke-linejoin="miter"><text dominant-baseline="middle" stroke="none" transform="matrix(1.0000,0.0000,0.0000,1.0000,216.5289,97.5207)" text-anchor="middle">r</text></g><g fill="rgb(255,255,255)" stroke="rgb(0,0,0)" stroke-linecap="butt" stroke-width="1.4472544539732655" stroke-miterlimit="10.0" fill-opacity="1.0" stroke-opacity="1.0" stroke-linejoin="miter"><path d="M 233.0579,31.4050 c 0.0000,-9.1287 -7.4003,-16.5289 -16.5289 -16.5289c -9.1287,-0.0000 -16.5289,7.4003 -16.5289 16.5289c -0.0000,9.1287 7.4003,16.5289 16.5289 16.5289c 9.1287,0.0000 16.5289,-7.4003 16.5289 -16.5289Z"/></g><g fill="rgb(0,0,0)" stroke="rgb(0,0,0)" stroke-linecap="butt" stroke-width="1.4472544539732655" font-size="8.264462809917356px" stroke-miterlimit="10.0" fill-opacity="1.0" stroke-opacity="1.0" stroke-linejoin="miter"><text dominant-baseline="middle" stroke="none" transform="matrix(1.0000,0.0000,0.0000,1.0000,216.5289,31.4050)" text-anchor="middle"></text></g></svg>